<svg width="37" height="37" viewBox="0 0 37 37" fill="none" xmlns="http://www.w3.org/2000/svg">
<path d="M18.4999 6.21175C19.075 6.21175 19.6266 5.9833 20.0332 5.57665C20.4399 5.17 20.6683 4.61846 20.6683 4.04338C20.6683 3.46829 20.4399 2.91675 20.0332 2.5101C19.6266 2.10345 19.075 1.875 18.4999 1.875C17.9248 1.875 17.3733 2.10345 16.9667 2.5101C16.56 2.91675 16.3316 3.46829 16.3316 4.04338C16.3316 4.61846 16.56 5.17 16.9667 5.57665C17.3733 5.9833 17.9248 6.21175 18.4999 6.21175ZM32.9589 6.21175C33.2437 6.21175 33.5257 6.15566 33.7887 6.04669C34.0518 5.93772 34.2909 5.778 34.4922 5.57665C34.6936 5.3753 34.8533 5.13626 34.9622 4.87318C35.0712 4.6101 35.1273 4.32813 35.1273 4.04338C35.1273 3.75862 35.0712 3.47665 34.9622 3.21357C34.8533 2.95049 34.6936 2.71146 34.4922 2.5101C34.2909 2.30875 34.0518 2.14903 33.7887 2.04006C33.5257 1.93109 33.2437 1.875 32.9589 1.875C32.3838 1.875 31.8323 2.10345 31.4257 2.5101C31.019 2.91675 30.7906 3.46829 30.7906 4.04338C30.7906 4.61846 31.019 5.17 31.4257 5.57665C31.8323 5.9833 32.3838 6.21175 32.9589 6.21175ZM4.04093 6.21175C4.32569 6.21175 4.60766 6.15566 4.87073 6.04669C5.13381 5.93772 5.37285 5.778 5.57421 5.57665C5.77556 5.3753 5.93528 5.13626 6.04425 4.87318C6.15322 4.6101 6.20931 4.32813 6.20931 4.04338C6.20931 3.75862 6.15322 3.47665 6.04425 3.21357C5.93528 2.95049 5.77556 2.71146 5.57421 2.5101C5.37285 2.30875 5.13381 2.14903 4.87073 2.04006C4.60766 1.93109 4.32569 1.875 4.04093 1.875C3.46584 1.875 2.91431 2.10345 2.50766 2.5101C2.10101 2.91675 1.87256 3.46829 1.87256 4.04338C1.87256 4.61846 2.10101 5.17 2.50766 5.57665C2.91431 5.9833 3.46584 6.21175 4.04093 6.21175ZM18.4999 20.6684C19.075 20.6684 19.6266 20.4399 20.0332 20.0333C20.4399 19.6266 20.6683 19.0751 20.6683 18.5C20.6683 17.9249 20.4399 17.3734 20.0332 16.9667C19.6266 16.5601 19.075 16.3316 18.4999 16.3316C17.9248 16.3316 17.3733 16.5601 16.9667 16.9667C16.56 17.3734 16.3316 17.9249 16.3316 18.5C16.3316 19.0751 16.56 19.6266 16.9667 20.0333C17.3733 20.4399 17.9248 20.6684 18.4999 20.6684ZM32.9589 20.6684C33.534 20.6684 34.0856 20.4399 34.4922 20.0333C34.8989 19.6266 35.1273 19.0751 35.1273 18.5C35.1273 17.9249 34.8989 17.3734 34.4922 16.9667C34.0856 16.5601 33.534 16.3316 32.9589 16.3316C32.3838 16.3316 31.8323 16.5601 31.4257 16.9667C31.019 17.3734 30.7906 17.9249 30.7906 18.5C30.7906 19.0751 31.019 19.6266 31.4257 20.0333C31.8323 20.4399 32.3838 20.6684 32.9589 20.6684ZM4.04093 20.6684C4.61602 20.6684 5.16756 20.4399 5.57421 20.0333C5.98085 19.6266 6.20931 19.0751 6.20931 18.5C6.20931 17.9249 5.98085 17.3734 5.57421 16.9667C5.16756 16.5601 4.61602 16.3316 4.04093 16.3316C3.46584 16.3316 2.91431 16.5601 2.50766 16.9667C2.10101 17.3734 1.87256 17.9249 1.87256 18.5C1.87256 19.0751 2.10101 19.6266 2.50766 20.0333C2.91431 20.4399 3.46584 20.6684 4.04093 20.6684ZM18.4999 35.125C19.075 35.125 19.6266 34.8965 20.0332 34.4899C20.4399 34.0832 20.6683 33.5317 20.6683 32.9566C20.6683 32.3815 20.4399 31.83 20.0332 31.4234C19.6266 31.0167 19.075 30.7882 18.4999 30.7882C17.9248 30.7882 17.3733 31.0167 16.9667 31.4234C16.56 31.83 16.3316 32.3815 16.3316 32.9566C16.3316 33.5317 16.56 34.0832 16.9667 34.4899C17.3733 34.8965 17.9248 35.125 18.4999 35.125ZM32.9589 35.125C33.534 35.125 34.0856 34.8965 34.4922 34.4899C34.8989 34.0832 35.1273 33.5317 35.1273 32.9566C35.1273 32.3815 34.8989 31.83 34.4922 31.4234C34.0856 31.0167 33.534 30.7882 32.9589 30.7882C32.3838 30.7882 31.8323 31.0167 31.4257 31.4234C31.019 31.83 30.7906 32.3815 30.7906 32.9566C30.7906 33.5317 31.019 34.0832 31.4257 34.4899C31.8323 34.8965 32.3838 35.125 32.9589 35.125ZM4.04093 35.125C4.61602 35.125 5.16756 34.8965 5.57421 34.4899C5.98085 34.0832 6.20931 33.5317 6.20931 32.9566C6.20931 32.3815 5.98085 31.83 5.57421 31.4234C5.16756 31.0167 4.61602 30.7882 4.04093 30.7882C3.46584 30.7882 2.91431 31.0167 2.50766 31.4234C2.10101 31.83 1.87256 32.3815 1.87256 32.9566C1.87256 33.5317 2.10101 34.0832 2.50766 34.4899C2.91431 34.8965 3.46584 35.125 4.04093 35.125Z" fill="white" stroke="white" stroke-width="3.5625" stroke-linecap="round" stroke-linejoin="round"/>
</svg>
